# xmcd CD database file
#
# Track frame offsets:
#	150
#	21157
#	43075
#	61968
#	84048
#	103229
#	134171
#	170363
#	181021
#	205556
#	232209
#	246010
#	275467
#	301905
#
# Disc length: 4448 seconds
#
# Revision: 0
# Processed by: cddbd v1.5.2PL0 Copyright (c) Steve Scherf et al.
# Submitted via: CDex 1.51
#
DISCID=ba115e0e
DTITLE=Jeremy Steig - Fusion
DYEAR=1900
DGENRE=Jazz
TTITLE0=Home
TTITLE1=Cakes
TTITLE2=Swamp Carol
TTITLE3=Energy
TTITLE4=Down Stretch
TTITLE5=Give me Some
TTITLE6=Come With Me
TTITLE7=Dance Of The Mind
TTITLE8=Up Tempo Thing
TTITLE9=Elephant Hump
TTITLE10=Rock #6
TTITLE11=Slow Blues in G
TTITLE12=Rock #9
TTITLE13=Something Else
EXTD=
EXTT0=
EXTT1=
EXTT2=
EXTT3=
EXTT4=
EXTT5=
EXTT6=
EXTT7=
EXTT8=
EXTT9=
EXTT10=
EXTT11=
EXTT12=
EXTT13=
PLAYORDER=
